<?xml version="1.0" encoding="utf-8"?>
<!-- Generator: Adobe Illustrator 27.0.0, SVG Export Plug-In . SVG Version: 6.00 Build 0)  -->
<svg version="1.1" id="レイヤー_1" xmlns="http://www.w3.org/2000/svg" xmlns:xlink="http://www.w3.org/1999/xlink" x="0px"
	 y="0px" viewBox="0 0 114.6699219 114.6699219" style="enable-background:new 0 0 114.6699219 114.6699219;" xml:space="preserve">
<style type="text/css">
	.st0{clip-path:url(#SVGID_00000113321859857589633360000005032441346843042707_);}
	.st1{fill:#F5F4F4;}
	.st2{fill:#E8E7E8;}
</style>
<g id="icon">
	<defs>
		<circle id="SVGID_1_" cx="57.3349609" cy="57.3349609" r="57.3349609"/>
	</defs>
	<clipPath id="SVGID_00000081629988573676817060000002995919322831165624_">
		<use xlink:href="#SVGID_1_"  style="overflow:visible;"/>
	</clipPath>
	<g style="clip-path:url(#SVGID_00000081629988573676817060000002995919322831165624_);">
		<path class="st1" d="M95.0631485,57.3349419c-0.6546631,0-1.2774658,0.2774658-1.7147827,0.762085l-27.645874,31.1212807
			c-4.6210938,4.6210327-12.1140137,4.6210327-16.7351074,0L21.6962662,58.0970268
			c-0.4373779-0.4846191-1.0600586-0.762085-1.7134399-0.762085H-0.0000222v57.3349648H114.669899V60.6218681
			c-2.1245728-2.0317993-4.9984131-3.2869263-8.1704712-3.2869263H95.0631485z"/>
		<path class="st2" d="M26.7264175,46.4100761L53.084816,76.594101c0.043396,0.048584,0.0894165,0.097229,0.1367188,0.1419067
			c2.2913818,2.2197876,5.9354858,2.2197876,8.2268677,0c0.0474243-0.0446777,0.0933228-0.0933228,0.1368408-0.1419067
			L88.3923111,46.328289c0.4718628-0.5255737,1.1456909-0.8260498,1.8529053-0.8260498h16.2542114
			c2.8703613,0,5.6225586,0.5147095,8.1704712,1.4550171V-0.0000173H-0.0000222v45.5022583h24.6882935
			C25.4657364,45.5022392,26.2073746,45.8321342,26.7264175,46.4100761z"/>
		<path d="M19.9828262,57.3349419c0.6533813,0,1.276062,0.2774658,1.7134399,0.762085l27.2711182,31.1212807
			c4.6210938,4.6210327,12.1140137,4.6210327,16.7351074,0l27.645874-31.1212807
			c0.4373169-0.4846191,1.0601196-0.762085,1.7147827-0.762085h11.4362793c3.1720581,0,6.0458984,1.255127,8.1704712,3.2869263
			V46.9572563c-2.5479126-0.9403076-5.3001099-1.4550171-8.1704712-1.4550171H90.2452164
			c-0.7072144,0-1.3810425,0.3004761-1.8529053,0.8260498L61.5852432,76.594101
			c-0.0435181,0.048584-0.0894165,0.097229-0.1368408,0.1419067c-2.2913818,2.2197876-5.9354858,2.2197876-8.2268677,0
			c-0.0473022-0.0446777-0.0933228-0.0933228-0.1367188-0.1419067L26.7264175,46.4100761
			c-0.519043-0.5779419-1.2606812-0.9078369-2.038147-0.9078369H-0.0000222v11.8327026H19.9828262z"/>
	</g>
</g>
</svg>
